<?xml version="1.0" encoding="UTF-8"?>
<svg xmlns="http://www.w3.org/2000/svg" viewBox="0 0 1091.67 1227">
  <defs>
    <style>
      .cls-1 {
        fill: #c2cfe7;
      }
    </style>
  </defs>
  <g id="Layer_1" data-name="Layer 1">
    <rect class="cls-1" x="260.27" y="584.72" width="572.75" height="45.47" rx="22.74" ry="22.74"/>
    <rect class="cls-1" x="260.27" y="584.72" width="54.65" height="305.28" rx="27.33" ry="27.33"/>
    <rect class="cls-1" x="295.69" y="721.28" width="181.08" height="46.14" rx="23.07" ry="23.07"/>
    <rect class="cls-1" x="263.48" y="843.86" width="213.29" height="46.14" rx="23.07" ry="23.07"/>
    <rect class="cls-1" x="539.5" y="725.63" width="213.29" height="46.14" rx="23.07" ry="23.07"/>
    <rect class="cls-1" x="519.88" y="591.71" width="54.65" height="305.28" rx="27.33" ry="27.33"/>
  </g>
  <g id="Layer_4" data-name="Layer 4">
    <path class="cls-1" d="m695.95,342.12c-.74-2.26-1.4-4.54-1.9-6.87-.14-.68-.83-4.02-.31-1.21s-.03-.51-.08-1.24c-.17-2.34-.21-4.69-.1-7.04.02-.43.08-3.07.23-3.13-.59.23-.73,4.1.08-.12.45-2.33,1.03-4.63,1.74-6.9.45-1.43,2.99-6.54.88-2.68,1.04-1.9,1.91-3.88,3.02-5.75.56-.94,1.14-1.87,1.75-2.78.45-.69.93-1.37,1.42-2.04.93-1.27.63-.91-.89,1.1.5.05,3.38-3.9,3.83-4.37,1.53-1.61,3.13-3.14,4.79-4.61.75-.66,1.54-1.27,2.28-1.94,2.09-1.88-2.81,1.93-.46.35,2.13-1.43,4.18-2.92,6.38-4.25,1.78-1.07,3.59-2.09,5.43-3.04,1.06-.55,7.4-3.87,3.1-1.6,4.13-2.18,9.23-3.32,13.75-4.42,2.11-.51,4.24-.9,6.37-1.32,3.73-.74-.4.21-.91.06.59.16,2.24-.25,2.96-.32,4.46-.4,8.94-.49,13.41-.28,2.24.1,4.45.35,6.69.54,2.88.23-3.72-.66-.89-.12.97.19,1.95.32,2.93.5,4.58.86,9.11,2.02,13.52,3.5,1.06.36,4.41,2.27,5.44,2.01-.36.09-4.26-1.98-.82-.31.86.42,1.72.8,2.57,1.23,3.75,1.86,7.38,3.99,10.81,6.4.6.42,1.68,1.03,2.21,1.61-2.87-3.16-1.81-1.46-.88-.58,1.47,1.37,2.99,2.65,4.39,4.09,1.23,1.25,2.3,2.65,3.52,3.9,1.94,1.98-2.67-4.07-.37-.44.57.91,1.2,1.77,1.77,2.69s1.11,1.86,1.62,2.82c.29.54,2.5,5.33,1.55,3.01s.31.98.5,1.54c.45,1.32.86,2.65,1.22,4,.7,2.59,1.59,5.46,1.7,8.15-.17-4.26-.18-1.29-.11-.35.11,1.67.26,3.34.33,5.02.47,11.29-.84,22.55-2.2,33.74-1.27,10.42,10.11,20.44,20,20,11.93-.53,18.63-8.83,20-20,3.05-24.95,3.99-49.78-7.27-73-9.89-20.41-29.43-33.88-49.92-42.07-41.57-16.6-95.63-6.98-125.68,27.37-19.06,21.79-27.19,51.81-17.99,79.8,3.26,9.92,13.97,17.41,24.6,13.97,9.9-3.2,17.47-13.96,13.97-24.6h0Z"/>
    <path class="cls-1" d="m253.78,342.12c-.74-2.26-1.4-4.54-1.9-6.87-.14-.68-.83-4.02-.31-1.21s-.03-.51-.08-1.24c-.17-2.34-.21-4.69-.1-7.04.02-.43.08-3.07.23-3.13-.59.23-.73,4.1.08-.12.45-2.33,1.03-4.63,1.74-6.9.45-1.43,2.99-6.54.88-2.68,1.04-1.9,1.91-3.88,3.02-5.75.56-.94,1.14-1.87,1.75-2.78.45-.69.93-1.37,1.42-2.04.93-1.27.63-.91-.89,1.1.5.05,3.38-3.9,3.83-4.37,1.53-1.61,3.13-3.14,4.79-4.61.75-.66,1.54-1.27,2.28-1.94,2.09-1.88-2.81,1.93-.46.35,2.13-1.43,4.18-2.92,6.38-4.25,1.78-1.07,3.59-2.09,5.43-3.04,1.06-.55,7.4-3.87,3.1-1.6,4.13-2.18,9.23-3.32,13.75-4.42,2.11-.51,4.24-.9,6.37-1.32,3.73-.74-.4.21-.91.06.59.16,2.24-.25,2.96-.32,4.46-.4,8.94-.49,13.41-.28,2.24.1,4.45.35,6.69.54,2.88.23-3.72-.66-.89-.12.97.19,1.95.32,2.93.5,4.58.86,9.11,2.02,13.52,3.5,1.06.36,4.41,2.27,5.44,2.01-.36.09-4.26-1.98-.82-.31.86.42,1.72.8,2.57,1.23,3.75,1.86,7.38,3.99,10.81,6.4.6.42,1.68,1.03,2.21,1.61-2.87-3.16-1.81-1.46-.88-.58,1.47,1.37,2.99,2.65,4.39,4.09,1.23,1.25,2.3,2.65,3.52,3.9,1.94,1.98-2.67-4.07-.37-.44.57.91,1.2,1.77,1.77,2.69s1.11,1.86,1.62,2.82c.29.54,2.5,5.33,1.55,3.01s.31.98.5,1.54c.45,1.32.86,2.65,1.22,4,.7,2.59,1.59,5.46,1.7,8.15-.17-4.26-.18-1.29-.11-.35.11,1.67.26,3.34.33,5.02.47,11.29-.84,22.55-2.2,33.74-1.27,10.42,10.11,20.44,20,20,11.93-.53,18.63-8.83,20-20,3.05-24.95,3.99-49.78-7.27-73-9.89-20.41-29.43-33.88-49.92-42.07-41.57-16.6-95.63-6.98-125.68,27.37-19.06,21.79-27.19,51.81-17.99,79.8,3.26,9.92,13.97,17.41,24.6,13.97,9.9-3.2,17.47-13.96,13.97-24.6h0Z"/>
  </g>
  <g id="Layer_3" data-name="Layer 3">
    <rect class="cls-1" x="111.43" y="341.21" width="52.21" height="645.96" rx="26.1" ry="26.1"/>
    <rect class="cls-1" x="511.09" y="-58.45" width="52.21" height="851.53" rx="26.1" ry="26.1" transform="translate(904.51 -169.88) rotate(90)"/>
    <rect class="cls-1" x="910.75" y="341.21" width="52.21" height="645.96" rx="26.1" ry="26.1"/>
    <rect class="cls-1" x="511.09" y="538.19" width="52.21" height="851.53" rx="26.1" ry="26.1" transform="translate(1501.15 426.76) rotate(90)"/>
    <rect class="cls-1" x="128.7" y="484.03" width="834.26" height="45.47"/>
  </g>
</svg>